<svg width="372" height="372" viewBox="0 0 372 372" fill="none" xmlns="http://www.w3.org/2000/svg">
<g id="Loop" clip-path="url(#clip0_2_5)">
<rect width="372" height="372" fill="white"/>
<g id="loopG">
<path id="ArcBottom" d="M299.057 214.787C293.109 233.703 282.738 254.893 268.55 268.751C254.362 282.61 236.964 292.745 217.907 298.253C198.112 303.664 177.219 303.6 157.459 298.068C137.699 292.536 117.844 282.387 103.743 267.486C101.995 265.555 99.4363 263.813 97.0757 262.711C94.7151 261.609 94.5688 260.527 91.9654 260.427C89.362 260.327 86.7648 260.748 84.3264 261.665C81.8881 262.582 79.6577 263.978 77.7663 265.768C75.875 267.559 74.3608 269.71 73.3128 272.094C72.2647 274.478 71.704 277.048 71.6634 279.651C71.6229 282.255 72.1034 284.84 73.0767 287.256C74.05 289.671 74.3123 292.595 76.1469 294.444C95.1109 314.486 120.35 328.275 146.927 335.715C173.504 343.155 201.604 343.24 228.225 335.96C255.263 328.201 279.787 313.476 299.338 293.261C318.889 273.045 332.278 243.192 339.119 215.92C341.705 205.791 320.625 173.276 299.057 214.787Z" fill="black"/>
<path id="ArrowBottom" d="M365.926 221.862C366.73 220.651 367.18 219.24 367.225 217.788C367.271 216.335 366.91 214.899 366.185 213.64L327.275 145.849C326.665 144.797 325.819 143.902 324.802 143.234C323.786 142.566 322.628 142.144 321.42 142.002C320.214 141.84 318.987 141.968 317.84 142.376C316.694 142.783 315.661 143.458 314.828 144.344L260.608 200.689C259.601 201.733 258.906 203.037 258.598 204.454C258.291 205.871 258.384 207.345 258.867 208.713C259.35 210.08 260.204 211.286 261.333 212.196C262.463 213.106 263.823 213.684 265.262 213.866L294.158 217.404C294.743 217.474 295.303 217.676 295.798 217.995C296.293 218.313 296.709 218.739 297.016 219.241C297.321 219.743 297.511 220.306 297.572 220.891C297.632 221.475 297.562 222.065 297.366 222.619C290.722 241.302 279.557 258.051 264.865 271.375C250.174 284.699 232.413 294.183 213.165 298.983C193.184 303.657 172.308 302.82 152.766 296.56C133.223 290.3 115.749 278.853 102.209 263.441C100.534 261.447 98.4769 259.807 96.1587 258.619C93.8405 257.43 91.308 256.717 88.7101 256.521C86.1122 256.324 83.5012 256.649 81.0305 257.475C78.5599 258.302 76.2794 259.613 74.323 261.333C72.3667 263.053 70.774 265.146 69.6384 267.489C68.5028 269.833 67.8474 272.38 67.7105 274.98C67.5736 277.581 67.9581 280.182 68.8413 282.632C69.7245 285.082 71.0887 287.33 72.8537 289.246C91.0628 309.976 114.564 325.373 140.847 333.791C167.13 342.21 195.208 343.335 222.081 337.045C249.388 330.293 274.439 316.486 294.725 297.008C315.011 277.53 329.819 253.065 337.665 226.065C337.927 225.176 338.496 224.408 339.271 223.898C340.045 223.388 340.975 223.169 341.896 223.279L358.44 225.312C358.752 225.335 359.066 225.336 359.378 225.314C360.67 225.324 361.944 225.014 363.087 224.412C364.229 223.809 365.205 222.934 365.926 221.862Z" fill="black"/>
<path id="ArcTop" d="M73.7647 150.818C80.5442 132.184 93.9261 110.099 108.714 96.8817C123.501 83.6649 141.331 74.3099 160.613 69.6504C180.628 65.1208 201.497 66.1097 220.993 72.5112C240.489 78.9128 259.875 89.9311 273.303 105.441C274.964 107.448 277.443 109.302 279.752 110.507C282.062 111.712 282.16 112.8 284.756 113.015C287.353 113.23 289.966 112.925 292.443 112.116C294.919 111.308 297.209 110.013 299.178 108.307C301.147 106.602 302.755 104.52 303.907 102.185C305.06 99.8495 305.734 97.3075 305.889 94.7082C306.045 92.1089 305.68 89.5046 304.814 87.0485C303.949 84.5924 303.816 81.6598 302.065 79.7316C284.007 58.8699 259.403 43.9771 233.182 35.3676C206.96 26.7582 178.892 25.4298 151.974 31.5242C124.619 38.0782 99.4674 51.7028 79.0405 71.033C58.6136 90.3632 42.859 118.481 34.8174 145.423C31.786 155.428 50.3808 191.334 73.7647 150.818Z" fill="black"/>
<path id="ArrowTop" d="M159.999 70.1715C179.978 65.488 200.856 66.3194 220.399 72.5768C239.942 78.8343 258.251 89.1244 271.789 104.54C275.215 108.43 282.624 111.185 287.8 111.515C292.975 111.845 294.657 110.882 298.549 107.458C302.442 104.034 304.815 99.2041 305.145 94.0317C305.475 88.8594 305.177 83.3847 301.751 79.4939C283.548 58.7596 258.61 43.7416 232.328 35.3198C206.047 26.898 177.97 25.772 151.099 32.0621C123.827 38.8223 98.8071 52.6142 78.5362 72.0609C58.2653 91.5076 43.4528 115.929 35.5775 142.886C35.3173 143.779 34.746 144.549 33.9671 145.057C33.1881 145.565 32.2529 145.778 31.3306 145.657L15.1785 143.578C13.7461 143.39 12.2897 143.609 10.9765 144.211C9.66323 144.813 8.54648 145.773 7.75446 146.98C6.94137 148.186 6.4806 149.594 6.42393 151.046C6.36726 152.499 6.71692 153.938 7.43363 155.203L45.9676 223.195C46.5684 224.252 47.4076 225.155 48.4185 225.831C49.4294 226.507 50.5841 226.938 51.7908 227.089C52.1136 227.114 52.4377 227.115 52.7606 227.092C53.8081 227.095 54.8456 226.888 55.8113 226.482C56.7771 226.077 57.6516 225.482 58.3828 224.732L112.931 168.717C113.946 167.673 114.65 166.367 114.962 164.945C115.275 163.524 115.184 162.043 114.7 160.67C114.217 159.297 113.359 158.087 112.224 157.175C111.089 156.263 109.722 155.686 108.276 155.508L78.9113 151.797C78.335 151.714 77.7845 151.503 77.3 151.181C76.8155 150.858 76.4092 150.431 76.1109 149.931C75.8125 149.431 75.6296 148.871 75.5754 148.292C75.5213 147.712 75.5973 147.128 75.7979 146.582C82.45 127.899 93.617 111.148 108.306 97.8178C122.996 84.4875 140.753 74.9907 159.999 70.1715Z" fill="black"/>
</g>
</g>
<defs>
<clipPath id="clip0_2_5">
<rect width="372" height="372" fill="white"/>
</clipPath>
</defs>
</svg>
